<?xml version="1.0" standalone="no"?><!DOCTYPE svg PUBLIC "-//W3C//DTD SVG 1.1//EN" "http://www.w3.org/Graphics/SVG/1.1/DTD/svg11.dtd"><svg t="1749280710659" class="icon" viewBox="0 0 1024 1024" version="1.1" xmlns="http://www.w3.org/2000/svg" p-id="4312" ne="0.07971919782542836" width="36" height="36" xmlns:xlink="http://www.w3.org/1999/xlink"><path d="M857.088 425.20576c92.2624 0 166.912 74.79296 166.912 167.23968v346.48064C1023.29344 957.97248 1007.80032 972.8 989.4912 972.8h-88.73984a39.41376 39.41376 0 0 1-39.43424-39.5264V612.21888c0-13.4144-11.264-24.69888-24.64768-24.69888h-173.2608a24.5248 24.5248 0 0 0-24.63744 24.69888v325.30432a34.60096 34.60096 0 0 1-34.5088 34.58048h-85.92384c-23.2448 0-41.55392-18.35008-41.55392-41.63584V594.56512c0-93.15328 75.3664-169.3696 169.02144-169.3696H857.088z m-352.83968 3.52256v13.4144a126.45376 126.45376 0 0 0-70.42048 113.6128c0 4.93568 0 9.1648 0.70656 14.11072H162.68288v352.82944c0 23.28576-19.01568 42.3424-42.25024 42.3424H42.26048c-23.2448 0-42.26048-19.0464-42.26048-42.3424V552.22272c15.49312-68.4544 79.58528-119.9616 151.41888-123.4944h352.82944zM80.2816 51.2h402.13504c22.53824 0 41.10336 17.92 42.20928 40.2432l0.0512 2.0992v78.336a42.43456 42.43456 0 0 1-40.15104 42.28096l-2.10944 0.0512H161.97632V375.0912a139.3664 139.3664 0 0 0-24.64768-2.11968c-58.63424 0-109.16864 32.50176-135.70048 80.26112L0 456.25344v-324.608c0-43.60192 34.54976-79.0528 77.73184-80.40448L80.29184 51.2h402.1248z" fill="hsla(213,60%,50%,1)" p-id="4313"></path></svg>