<?xml version="1.0" standalone="no"?><!DOCTYPE svg PUBLIC "-//W3C//DTD SVG 1.1//EN" "http://www.w3.org/Graphics/SVG/1.1/DTD/svg11.dtd"><svg t="1749199370620" class="icon" viewBox="0 0 1024 1024" version="1.1" xmlns="http://www.w3.org/2000/svg" p-id="4526" ne="0.6214298905648787" width="16" height="16" xmlns:xlink="http://www.w3.org/1999/xlink"><path d="M85.76 927.36a21.76 21.76 0 0 1-21.76-20.48v-88.96a21.76 21.76 0 0 1 20.48-21.76h853.76a21.76 21.76 0 0 1 21.76 20.48v88.96a21.76 21.76 0 0 1-21.12 21.76z m0-351.36A22.4 22.4 0 0 1 64 556.8V467.84A21.76 21.76 0 0 1 84.48 448h853.76a21.76 21.76 0 0 1 21.76 19.2v88.32a21.76 21.76 0 0 1-21.12 21.76H85.76z m0-350.08A21.76 21.76 0 0 1 64 207.36V118.4a21.76 21.76 0 0 1 20.48-21.76h853.76a22.4 22.4 0 0 1 21.76 21.12v88.32a21.76 21.76 0 0 1-21.12 21.76z" fill="hsla(216,48%,54%,1)" p-id="4527"></path></svg>